<svg width="86" height="86" viewBox="0 0 86 86" fill="none" xmlns="http://www.w3.org/2000/svg">
<g clip-path="url(#clip0)">
<g opacity="0.7">
<path opacity="0.7" d="M70.9463 40.795L42.7158 34.3035V85.1102L70.9463 78.0542V40.795Z" fill="url(#paint0_linear)"/>
<g opacity="0.1">
<path opacity="0.1" d="M70.9463 40.795L42.7158 34.3035V85.1102L70.9463 78.0542V40.795Z" fill="url(#paint1_linear)"/>
</g>
<path opacity="0.7" d="M14.4844 40.795L42.716 34.3035V85.1102L14.4844 78.1945V40.795Z" fill="url(#paint2_linear)"/>
<g opacity="0.17">
<path opacity="0.17" d="M14.4844 40.795L42.716 34.3035V85.1102L14.4844 78.1945V40.795Z" fill="url(#paint3_linear)"/>
</g>
<path opacity="0.7" d="M42.7158 34.3034L57.3481 22.7309L85.5786 29.6466L70.9463 40.795L42.7158 34.3034Z" fill="url(#paint4_linear)"/>
<path opacity="0.7" d="M0 29.7869L14.4842 40.795L42.7159 34.3034L28.3785 22.7309L0 29.7869Z" fill="url(#paint5_linear)"/>
<g opacity="0.05">
<path opacity="0.05" d="M0 29.7869L14.4842 40.795L42.7159 34.3034L28.3785 22.7309L0 29.7869Z" fill="url(#paint6_linear)"/>
</g>
<g opacity="0.5">
<path opacity="0.5" d="M42.2064 28.4309H22.3018C22.012 28.4309 21.7771 28.6552 21.7771 28.9319V46.3903C21.7771 46.667 22.012 46.8913 22.3018 46.8913H42.2064C42.4961 46.8913 42.731 46.667 42.731 46.3903V28.9319C42.731 28.6552 42.4961 28.4309 42.2064 28.4309Z" fill="url(#paint7_linear)"/>
</g>
<path opacity="0.7" d="M41.9791 28.5734H22.5571C22.2674 28.5734 22.0325 28.7977 22.0325 29.0744V46.0853C22.0325 46.362 22.2674 46.5863 22.5571 46.5863H41.9791C42.2688 46.5863 42.5037 46.362 42.5037 46.0853V29.0744C42.5037 28.7977 42.2688 28.5734 41.9791 28.5734Z" fill="url(#paint8_linear)"/>
<path opacity="0.7" d="M26.5375 31.5403H24.1345C23.8448 31.5403 23.6099 31.7646 23.6099 32.0413V34.0062C23.6099 34.2829 23.8448 34.5072 24.1345 34.5072H26.5375C26.8273 34.5072 27.0622 34.2829 27.0622 34.0062V32.0413C27.0622 31.7646 26.8273 31.5403 26.5375 31.5403Z" fill="url(#paint9_linear)"/>
<path opacity="0.7" d="M41.7284 31.5403H28.1909C28.1394 31.5403 28.0977 31.5802 28.0977 31.6293V31.7807C28.0977 31.8299 28.1394 31.8698 28.1909 31.8698H41.7284C41.7799 31.8698 41.8217 31.8299 41.8217 31.7807V31.6293C41.8217 31.5802 41.7799 31.5403 41.7284 31.5403Z" fill="url(#paint10_linear)"/>
<path opacity="0.7" d="M41.7284 32.5289H28.1909C28.1394 32.5289 28.0977 32.5687 28.0977 32.6179V32.7693C28.0977 32.8185 28.1394 32.8584 28.1909 32.8584H41.7284C41.7799 32.8584 41.8217 32.8185 41.8217 32.7693V32.6179C41.8217 32.5687 41.7799 32.5289 41.7284 32.5289Z" fill="url(#paint11_linear)"/>
<path opacity="0.7" d="M41.7284 36.1192H23.3582C23.3067 36.1192 23.2649 36.1591 23.2649 36.2083V36.3597C23.2649 36.4089 23.3067 36.4487 23.3582 36.4487H41.7284C41.7799 36.4487 41.8217 36.4089 41.8217 36.3597V36.2083C41.8217 36.1591 41.7799 36.1192 41.7284 36.1192Z" fill="url(#paint12_linear)"/>
<path opacity="0.7" d="M41.7284 37.1078H23.3582C23.3067 37.1078 23.2649 37.1477 23.2649 37.1968V37.3483C23.2649 37.3974 23.3067 37.4373 23.3582 37.4373H41.7284C41.7799 37.4373 41.8217 37.3974 41.8217 37.3483V37.1968C41.8217 37.1477 41.7799 37.1078 41.7284 37.1078Z" fill="url(#paint13_linear)"/>
<path opacity="0.7" d="M41.7284 38.426H23.3582C23.3067 38.426 23.2649 38.4658 23.2649 38.515V38.6664C23.2649 38.7156 23.3067 38.7555 23.3582 38.7555H41.7284C41.7799 38.7555 41.8217 38.7156 41.8217 38.6664V38.515C41.8217 38.4658 41.7799 38.426 41.7284 38.426Z" fill="url(#paint14_linear)"/>
<path opacity="0.7" d="M33.8736 39.4156H23.3582C23.3067 39.4156 23.2649 39.4555 23.2649 39.5047V39.6561C23.2649 39.7053 23.3067 39.7452 23.3582 39.7452H33.8736C33.9251 39.7452 33.9669 39.7053 33.9669 39.6561V39.5047C33.9669 39.4555 33.9251 39.4156 33.8736 39.4156Z" fill="url(#paint15_linear)"/>
<path opacity="0.7" d="M41.7284 40.7304H23.3582C23.3067 40.7304 23.2649 40.7703 23.2649 40.8195V40.9709C23.2649 41.0201 23.3067 41.0599 23.3582 41.0599H41.7284C41.7799 41.0599 41.8217 41.0201 41.8217 40.9709V40.8195C41.8217 40.7703 41.7799 40.7304 41.7284 40.7304Z" fill="url(#paint16_linear)"/>
<path opacity="0.7" d="M41.7284 41.719H23.3582C23.3067 41.719 23.2649 41.7589 23.2649 41.8081V41.9595C23.2649 42.0086 23.3067 42.0485 23.3582 42.0485H41.7284C41.7799 42.0485 41.8217 42.0086 41.8217 41.9595V41.8081C41.8217 41.7589 41.7799 41.719 41.7284 41.719Z" fill="url(#paint17_linear)"/>
<path opacity="0.7" d="M41.7284 43.0383H23.3582C23.3067 43.0383 23.2649 43.0781 23.2649 43.1273V43.2787C23.2649 43.3279 23.3067 43.3678 23.3582 43.3678H41.7284C41.7799 43.3678 41.8217 43.3279 41.8217 43.2787V43.1273C41.8217 43.0781 41.7799 43.0383 41.7284 43.0383Z" fill="url(#paint18_linear)"/>
<path opacity="0.7" d="M33.8736 44.0269H23.3582C23.3067 44.0269 23.2649 44.0667 23.2649 44.1159V44.2673C23.2649 44.3165 23.3067 44.3564 23.3582 44.3564H33.8736C33.9251 44.3564 33.9669 44.3165 33.9669 44.2673V44.1159C33.9669 44.0667 33.9251 44.0269 33.8736 44.0269Z" fill="url(#paint19_linear)"/>
<g opacity="0.5">
<path opacity="0.5" d="M45.3683 32.6959H25.4636C25.1739 32.6959 24.939 32.9202 24.939 33.1968V50.6553C24.939 50.9319 25.1739 51.1562 25.4636 51.1562H45.3683C45.658 51.1562 45.8929 50.9319 45.8929 50.6553V33.1968C45.8929 32.9202 45.658 32.6959 45.3683 32.6959Z" fill="url(#paint20_linear)"/>
</g>
<path opacity="0.7" d="M45.1409 32.8395H25.719C25.4292 32.8395 25.1943 33.0638 25.1943 33.3405V50.3513C25.1943 50.628 25.4292 50.8523 25.719 50.8523H45.1409C45.4307 50.8523 45.6656 50.628 45.6656 50.3513V33.3405C45.6656 33.0638 45.4307 32.8395 45.1409 32.8395Z" fill="url(#paint21_linear)"/>
<path opacity="0.7" d="M29.6994 35.8064H27.2964C27.0066 35.8064 26.7717 36.0307 26.7717 36.3074V38.2723C26.7717 38.549 27.0066 38.7733 27.2964 38.7733H29.6994C29.9891 38.7733 30.224 38.549 30.224 38.2723V36.3074C30.224 36.0307 29.9891 35.8064 29.6994 35.8064Z" fill="url(#paint22_linear)"/>
<path opacity="0.7" d="M44.8915 35.8064H31.354C31.3025 35.8064 31.2607 35.8463 31.2607 35.8955V36.0469C31.2607 36.096 31.3025 36.1359 31.354 36.1359H44.8915C44.943 36.1359 44.9848 36.096 44.9848 36.0469V35.8955C44.9848 35.8463 44.943 35.8064 44.8915 35.8064Z" fill="url(#paint23_linear)"/>
<path opacity="0.7" d="M44.8915 36.795H31.354C31.3025 36.795 31.2607 36.8349 31.2607 36.884V37.0355C31.2607 37.0846 31.3025 37.1245 31.354 37.1245H44.8915C44.943 37.1245 44.9848 37.0846 44.9848 37.0355V36.884C44.9848 36.8349 44.943 36.795 44.8915 36.795Z" fill="url(#paint24_linear)"/>
<path opacity="0.7" d="M44.8903 40.3842H26.52C26.4685 40.3842 26.4268 40.4241 26.4268 40.4733V40.6247C26.4268 40.6739 26.4685 40.7137 26.52 40.7137H44.8903C44.9418 40.7137 44.9836 40.6739 44.9836 40.6247V40.4733C44.9836 40.4241 44.9418 40.3842 44.8903 40.3842Z" fill="url(#paint25_linear)"/>
<path opacity="0.7" d="M44.8903 41.3739H26.52C26.4685 41.3739 26.4268 41.4138 26.4268 41.463V41.6144C26.4268 41.6636 26.4685 41.7034 26.52 41.7034H44.8903C44.9418 41.7034 44.9836 41.6636 44.9836 41.6144V41.463C44.9836 41.4138 44.9418 41.3739 44.8903 41.3739Z" fill="url(#paint26_linear)"/>
<path opacity="0.7" d="M44.8903 42.692H26.52C26.4685 42.692 26.4268 42.7319 26.4268 42.7811V42.9325C26.4268 42.9817 26.4685 43.0215 26.52 43.0215H44.8903C44.9418 43.0215 44.9836 42.9817 44.9836 42.9325V42.7811C44.9836 42.7319 44.9418 42.692 44.8903 42.692Z" fill="url(#paint27_linear)"/>
<path opacity="0.7" d="M37.0355 43.6806H26.52C26.4685 43.6806 26.4268 43.7205 26.4268 43.7697V43.9211C26.4268 43.9703 26.4685 44.0101 26.52 44.0101H37.0355C37.087 44.0101 37.1287 43.9703 37.1287 43.9211V43.7697C37.1287 43.7205 37.087 43.6806 37.0355 43.6806Z" fill="url(#paint28_linear)"/>
<path opacity="0.7" d="M44.8903 44.9965H26.52C26.4685 44.9965 26.4268 45.0363 26.4268 45.0855V45.2369C26.4268 45.2861 26.4685 45.326 26.52 45.326H44.8903C44.9418 45.326 44.9836 45.2861 44.9836 45.2369V45.0855C44.9836 45.0363 44.9418 44.9965 44.8903 44.9965Z" fill="url(#paint29_linear)"/>
<path opacity="0.7" d="M44.8903 45.9851H26.52C26.4685 45.9851 26.4268 46.025 26.4268 46.0742V46.2256C26.4268 46.2748 26.4685 46.3146 26.52 46.3146H44.8903C44.9418 46.3146 44.9836 46.2748 44.9836 46.2256V46.0742C44.9836 46.025 44.9418 45.9851 44.8903 45.9851Z" fill="url(#paint30_linear)"/>
<path opacity="0.7" d="M44.8903 47.3043H26.52C26.4685 47.3043 26.4268 47.3442 26.4268 47.3934V47.5448C26.4268 47.594 26.4685 47.6338 26.52 47.6338H44.8903C44.9418 47.6338 44.9836 47.594 44.9836 47.5448V47.3934C44.9836 47.3442 44.9418 47.3043 44.8903 47.3043Z" fill="url(#paint31_linear)"/>
<path opacity="0.7" d="M37.0355 48.2929H26.52C26.4685 48.2929 26.4268 48.3328 26.4268 48.382V48.5334C26.4268 48.5826 26.4685 48.6224 26.52 48.6224H37.0355C37.087 48.6224 37.1287 48.5826 37.1287 48.5334V48.382C37.1287 48.3328 37.087 48.2929 37.0355 48.2929Z" fill="url(#paint32_linear)"/>
<g opacity="0.5">
<path opacity="0.5" d="M55.28 35.085H37.1243V55.4535H55.28V35.085Z" fill="url(#paint33_linear)"/>
</g>
<path opacity="0.7" d="M54.894 35.4134H37.6826V55.0038H54.894V35.4134Z" fill="url(#paint34_linear)"/>
<g opacity="0.5">
<path opacity="0.5" d="M47.2257 38.5283V38.0363H45.3544V38.5283H44.0381V40.9453H48.5385V38.5283H47.2257ZM45.5876 38.2133H46.9867V38.5261H45.5876V38.2133Z" fill="url(#paint35_linear)"/>
</g>
<path opacity="0.7" d="M48.3484 38.6096H44.228V40.8228H48.3484V38.6096Z" fill="url(#paint36_linear)"/>
<path opacity="0.7" d="M45.4302 38.1588V38.7332H45.6447V38.3235H46.9319V38.7332H47.1464V38.1588H45.4302Z" fill="url(#paint37_linear)"/>
<path opacity="0.7" d="M52.3615 44.0079H40.2581V44.4999H52.3615V44.0079Z" fill="url(#paint38_linear)"/>
<path opacity="0.7" d="M52.3615 47.2453H40.2581V47.7374H52.3615V47.2453Z" fill="url(#paint39_linear)"/>
<path opacity="0.7" d="M52.3615 48.1058H40.2581V48.5979H52.3615V48.1058Z" fill="url(#paint40_linear)"/>
<path opacity="0.7" d="M45.366 46.3848H40.2581V46.8768H45.366V46.3848Z" fill="url(#paint41_linear)"/>
<g opacity="0.6">
<path opacity="0.6" d="M52.3616 46.3848H48.542V46.8768H52.3616V46.3848Z" fill="url(#paint42_linear)"/>
</g>
<path opacity="0.7" d="M48.3264 50.1143H44.5068V50.6063H48.3264V50.1143Z" fill="url(#paint43_linear)"/>
<path opacity="0.7" d="M14.4844 40.795V78.1945L42.716 85.1102V47.9934L14.4844 40.795Z" fill="url(#paint44_linear)"/>
<path opacity="0.7" d="M70.9463 78.0542L42.7158 85.1102V47.9934L70.9463 40.795V78.0542Z" fill="url(#paint45_linear)"/>
<g opacity="0.07">
<path opacity="0.07" d="M70.9463 78.0542L42.7158 85.1102V47.9934L70.9463 40.795V78.0542Z" fill="url(#paint46_linear)"/>
</g>
<g opacity="0.07">
<path opacity="0.07" d="M59.7126 65.6344V77.9128L70.9463 74.9492V62.6709L59.7126 65.6344Z" fill="url(#paint47_linear)"/>
</g>
<path opacity="0.7" d="M64.4977 37.6755H56.1719V45.3137H64.4977V37.6755Z" fill="url(#paint48_linear)"/>
<path opacity="0.7" d="M64.3669 37.8626H56.3022V45.1579H64.3669V37.8626Z" fill="url(#paint49_linear)"/>
<g opacity="0.5">
<path opacity="0.5" d="M61.0477 39.1418V38.77H59.6218V39.144H58.6226V40.9832H62.0469V39.1418H61.0477ZM59.8002 38.9036H60.8705V39.1418H59.8002V38.9036Z" fill="url(#paint50_linear)"/>
</g>
<g opacity="0.6">
<path opacity="0.6" d="M61.9011 39.2041H58.7671V40.8874H61.9011V39.2041Z" fill="url(#paint51_linear)"/>
</g>
<g opacity="0.6">
<path opacity="0.6" d="M59.6812 38.8601V39.2976H59.8455V38.9859H60.8249V39.2976H60.9882V38.8601H59.6812Z" fill="url(#paint52_linear)"/>
</g>
<g opacity="0.6">
<path opacity="0.6" d="M61.8523 42.1966H58.9468V42.5707H61.8523V42.1966Z" fill="url(#paint53_linear)"/>
</g>
<path opacity="0.7" d="M62.8164 42.8824H57.853V43.2564H62.8164V42.8824Z" fill="url(#paint54_linear)"/>
<g opacity="0.5">
<path opacity="0.5" d="M47.2209 14.3268H36.4338V22.7877H47.2209V14.3268Z" fill="url(#paint55_linear)"/>
</g>
<path opacity="0.7" d="M47.0753 14.4871H36.5598V22.6474H47.0753V14.4871Z" fill="url(#paint56_linear)"/>
<path opacity="0.7" d="M47.0753 14.4871H36.5598V16.3073H47.0753V14.4871Z" fill="url(#paint57_linear)"/>
<g opacity="0.1">
<path opacity="0.1" d="M47.0753 14.4871H36.5598V16.3073H47.0753V14.4871Z" fill="url(#paint58_linear)"/>
</g>
<path opacity="0.7" d="M46.238 16.9675H37.3979V18.0273H46.238V16.9675Z" fill="url(#paint59_linear)"/>
<path opacity="0.7" d="M43.8502 18.8278H37.3979V19.1874H43.8502V18.8278Z" fill="url(#paint60_linear)"/>
<path opacity="0.7" d="M41.5871 19.4479H37.3979V19.8075H41.5871V19.4479Z" fill="url(#paint61_linear)"/>
<path opacity="0.7" d="M42.9279 20.0679H37.3979V20.4275H42.9279V20.0679Z" fill="url(#paint62_linear)"/>
<path opacity="0.7" d="M43.8502 20.687H37.3979V21.0465H43.8502V20.687Z" fill="url(#paint63_linear)"/>
<path opacity="0.7" d="M39.5549 21.3071H37.3979V21.6667H39.5549V21.3071Z" fill="url(#paint64_linear)"/>
<g opacity="0.5">
<path opacity="0.5" d="M65.6647 20.6802H52.2939V31.1662H65.6647V20.6802Z" fill="url(#paint65_linear)"/>
</g>
<path opacity="0.7" d="M65.484 20.8784H52.4502V30.9926H65.484V20.8784Z" fill="url(#paint66_linear)"/>
<path opacity="0.7" d="M65.484 20.8784H52.4502V23.1339H65.484V20.8784Z" fill="url(#paint67_linear)"/>
<path opacity="0.7" d="M64.444 23.9522H53.4878V25.2659H64.444V23.9522Z" fill="url(#paint68_linear)"/>
<path opacity="0.7" d="M61.4848 26.2578H53.4878V26.7042H61.4848V26.2578Z" fill="url(#paint69_linear)"/>
<path opacity="0.7" d="M58.6808 27.0259H53.4878V27.4724H58.6808V27.0259Z" fill="url(#paint70_linear)"/>
<path opacity="0.7" d="M60.3423 27.7952H53.4878V28.2417H60.3423V27.7952Z" fill="url(#paint71_linear)"/>
<path opacity="0.7" d="M61.4848 28.5634H53.4878V29.0098H61.4848V28.5634Z" fill="url(#paint72_linear)"/>
<path opacity="0.7" d="M56.1624 29.3315H53.4878V29.778H56.1624V29.3315Z" fill="url(#paint73_linear)"/>
<path opacity="0.7" d="M57.1744 24.3986H54.0591V24.795H57.1744V24.3986Z" fill="url(#paint74_linear)"/>
<g opacity="0.1">
<path opacity="0.1" d="M14.116 60.2006L29.9305 64.0113L42.6414 54.1321V48.0636L14.4109 41.2893L14.116 60.2006Z" fill="url(#paint75_linear)"/>
</g>
<g opacity="0.1">
<path opacity="0.1" d="M71.1677 60.2006L55.352 64.0113L42.6411 54.1321V48.0636L70.8715 41.2893L71.1677 60.2006Z" fill="url(#paint76_linear)"/>
</g>
<path opacity="0.7" d="M14.4842 40.795L0 52.2272L28.2305 59.0015L42.7159 47.9934L14.4842 40.795Z" fill="url(#paint77_linear)"/>
<path opacity="0.7" d="M70.9463 40.795L85.5786 52.2272L57.4962 59.0015L42.7158 47.9934L70.9463 40.795Z" fill="url(#paint78_linear)"/>
<g opacity="0.07">
<path opacity="0.07" d="M70.9463 40.795L85.5786 52.2272L57.4962 59.0015L42.7158 47.9934L70.9463 40.795Z" fill="url(#paint79_linear)"/>
</g>
</g>
<path d="M70.9977 40.4521L43.0085 34.0151V84.3876L70.9977 77.3918V40.4521Z" fill="#535461"/>
<path opacity="0.1" d="M70.9977 40.4521L43.0085 34.0151V84.3876L70.9977 77.3918V40.4521Z" fill="black"/>
<path d="M15.0205 40.4521L43.0085 34.0151V84.3876L15.0205 77.531V40.4521Z" fill="#535461"/>
<path opacity="0.17" d="M15.0205 40.2294L43.0085 33.7924V84.3876L15.0205 77.5309V40.2294Z" fill="black"/>
<path d="M42.7751 34.2378L57.5159 22.5417L85.505 29.3984L70.7643 40.6748L42.7751 34.2378Z" fill="#535461"/>
<path d="M0.893066 29.7602L15.2537 40.6748L43.2417 34.2378L29.0279 22.7643L0.893066 29.7602Z" fill="#535461"/>
<path opacity="0.05" d="M0.659912 29.5375L15.3703 40.6748L43.3583 34.2378L28.7948 22.5417L0.659912 29.5375Z" fill="black"/>
<g opacity="0.5">
<path opacity="0.5" d="M42.499 28.1927H22.7739C22.4842 28.1927 22.2493 28.417 22.2493 28.6937V45.994C22.2493 46.2707 22.4842 46.495 22.7739 46.495H42.499C42.7888 46.495 43.0237 46.2707 43.0237 45.994V28.6937C43.0237 28.417 42.7888 28.1927 42.499 28.1927Z" fill="url(#paint80_linear)"/>
</g>
<path d="M42.2739 28.3351H23.0281C22.7383 28.3351 22.5034 28.5594 22.5034 28.8361V45.6923C22.5034 45.9689 22.7383 46.1932 23.0281 46.1932H42.2739C42.5637 46.1932 42.7986 45.9689 42.7986 45.6923V28.8361C42.7986 28.5594 42.5637 28.3351 42.2739 28.3351Z" fill="#F5F5F5"/>
<path d="M26.9654 31.2764H24.5916C24.3018 31.2764 24.0669 31.5007 24.0669 31.7774V33.7167C24.0669 33.9934 24.3018 34.2177 24.5916 34.2177H26.9654C27.2551 34.2177 27.49 33.9934 27.49 33.7167V31.7774C27.49 31.5007 27.2551 31.2764 26.9654 31.2764Z" fill="#6C63FF"/>
<path d="M42.0304 31.2764H28.6106C28.5591 31.2764 28.5173 31.3163 28.5173 31.3655V31.5147C28.5173 31.5639 28.5591 31.6037 28.6106 31.6037H42.0304C42.0819 31.6037 42.1236 31.5639 42.1236 31.5147V31.3655C42.1236 31.3163 42.0819 31.2764 42.0304 31.2764Z" fill="#E0E0E0"/>
<path d="M42.0304 32.2561H28.6106C28.5591 32.2561 28.5173 32.296 28.5173 32.3452V32.4944C28.5173 32.5435 28.5591 32.5834 28.6106 32.5834H42.0304C42.0819 32.5834 42.1236 32.5435 42.1236 32.4944V32.3452C42.1236 32.296 42.0819 32.2561 42.0304 32.2561Z" fill="#E0E0E0"/>
<path d="M42.0303 35.8153H23.8186C23.7671 35.8153 23.7253 35.8552 23.7253 35.9044V36.0536C23.7253 36.1027 23.7671 36.1426 23.8186 36.1426H42.0303C42.0818 36.1426 42.1236 36.1027 42.1236 36.0536V35.9044C42.1236 35.8552 42.0818 35.8153 42.0303 35.8153Z" fill="#E0E0E0"/>
<path d="M42.0303 36.7961H23.8186C23.7671 36.7961 23.7253 36.836 23.7253 36.8851V37.0343C23.7253 37.0835 23.7671 37.1234 23.8186 37.1234H42.0303C42.0818 37.1234 42.1236 37.0835 42.1236 37.0343V36.8851C42.1236 36.836 42.0818 36.7961 42.0303 36.7961Z" fill="#E0E0E0"/>
<path d="M42.0303 38.103H23.8186C23.7671 38.103 23.7253 38.1429 23.7253 38.1921V38.3413C23.7253 38.3905 23.7671 38.4303 23.8186 38.4303H42.0303C42.0818 38.4303 42.1236 38.3905 42.1236 38.3413V38.1921C42.1236 38.1429 42.0818 38.103 42.0303 38.103Z" fill="#E0E0E0"/>
<path d="M34.2431 39.0839H23.8186C23.7671 39.0839 23.7253 39.1237 23.7253 39.1729V39.3221C23.7253 39.3713 23.7671 39.4112 23.8186 39.4112H34.2431C34.2946 39.4112 34.3364 39.3713 34.3364 39.3221V39.1729C34.3364 39.1237 34.2946 39.0839 34.2431 39.0839Z" fill="#E0E0E0"/>
<path d="M42.0303 40.3875H23.8186C23.7671 40.3875 23.7253 40.4274 23.7253 40.4766V40.6258C23.7253 40.6749 23.7671 40.7148 23.8186 40.7148H42.0303C42.0818 40.7148 42.1236 40.6749 42.1236 40.6258V40.4766C42.1236 40.4274 42.0818 40.3875 42.0303 40.3875Z" fill="#E0E0E0"/>
<path d="M42.0303 41.3683H23.8186C23.7671 41.3683 23.7253 41.4082 23.7253 41.4574V41.6066C23.7253 41.6558 23.7671 41.6956 23.8186 41.6956H42.0303C42.0818 41.6956 42.1236 41.6558 42.1236 41.6066V41.4574C42.1236 41.4082 42.0818 41.3683 42.0303 41.3683Z" fill="#E0E0E0"/>
<path d="M42.0303 42.6753H23.8186C23.7671 42.6753 23.7253 42.7152 23.7253 42.7644V42.9135C23.7253 42.9627 23.7671 43.0026 23.8186 43.0026H42.0303C42.0818 43.0026 42.1236 42.9627 42.1236 42.9135V42.7644C42.1236 42.7152 42.0818 42.6753 42.0303 42.6753Z" fill="#E0E0E0"/>
<path d="M34.2431 43.6561H23.8186C23.7671 43.6561 23.7253 43.696 23.7253 43.7452V43.8944C23.7253 43.9436 23.7671 43.9834 23.8186 43.9834H34.2431C34.2946 43.9834 34.3364 43.9436 34.3364 43.8944V43.7452C34.3364 43.696 34.2946 43.6561 34.2431 43.6561Z" fill="#E0E0E0"/>
<g opacity="0.5">
<path opacity="0.5" d="M45.634 32.422H25.9089C25.6192 32.422 25.3843 32.6463 25.3843 32.923V50.2233C25.3843 50.5 25.6192 50.7243 25.9089 50.7243H45.634C45.9238 50.7243 46.1587 50.5 46.1587 50.2233V32.923C46.1587 32.6463 45.9238 32.422 45.634 32.422Z" fill="url(#paint81_linear)"/>
</g>
<path d="M45.4092 32.5645H26.1633C25.8736 32.5645 25.6387 32.7888 25.6387 33.0655V49.9216C25.6387 50.1983 25.8736 50.4226 26.1633 50.4226H45.4092C45.699 50.4226 45.9339 50.1983 45.9339 49.9216V33.0655C45.9339 32.7888 45.699 32.5645 45.4092 32.5645Z" fill="white"/>
<path d="M30.1006 35.5058H27.7268C27.437 35.5058 27.2021 35.7301 27.2021 36.0068V37.9461C27.2021 38.2228 27.437 38.4471 27.7268 38.4471H30.1006C30.3904 38.4471 30.6253 38.2228 30.6253 37.9461V36.0068C30.6253 35.7301 30.3904 35.5058 30.1006 35.5058Z" fill="#6C63FF"/>
<path d="M45.1656 35.5058H31.7459C31.6943 35.5058 31.6526 35.5457 31.6526 35.5949V35.744C31.6526 35.7932 31.6943 35.8331 31.7459 35.8331H45.1656C45.2171 35.8331 45.2589 35.7932 45.2589 35.744V35.5949C45.2589 35.5457 45.2171 35.5058 45.1656 35.5058Z" fill="#E0E0E0"/>
<path d="M45.1656 36.4855H31.7459C31.6943 36.4855 31.6526 36.5253 31.6526 36.5745V36.7237C31.6526 36.7729 31.6943 36.8128 31.7459 36.8128H45.1656C45.2171 36.8128 45.2589 36.7729 45.2589 36.7237V36.5745C45.2589 36.5253 45.2171 36.4855 45.1656 36.4855Z" fill="#E0E0E0"/>
<path d="M45.1653 40.0446H26.9536C26.9021 40.0446 26.8604 40.0845 26.8604 40.1337V40.2828C26.8604 40.332 26.9021 40.3719 26.9536 40.3719H45.1653C45.2168 40.3719 45.2586 40.332 45.2586 40.2828V40.1337C45.2586 40.0845 45.2168 40.0446 45.1653 40.0446Z" fill="#E0E0E0"/>
<path d="M45.1653 41.0255H26.9536C26.9021 41.0255 26.8604 41.0653 26.8604 41.1145V41.2637C26.8604 41.3129 26.9021 41.3528 26.9536 41.3528H45.1653C45.2168 41.3528 45.2586 41.3129 45.2586 41.2637V41.1145C45.2586 41.0653 45.2168 41.0255 45.1653 41.0255Z" fill="#E0E0E0"/>
<path d="M45.1653 42.3324H26.9536C26.9021 42.3324 26.8604 42.3723 26.8604 42.4215V42.5706C26.8604 42.6198 26.9021 42.6597 26.9536 42.6597H45.1653C45.2168 42.6597 45.2586 42.6198 45.2586 42.5706V42.4215C45.2586 42.3723 45.2168 42.3324 45.1653 42.3324Z" fill="#E0E0E0"/>
<path d="M37.3781 43.3132H26.9536C26.9021 43.3132 26.8604 43.3531 26.8604 43.4023V43.5515C26.8604 43.6007 26.9021 43.6405 26.9536 43.6405H37.3781C37.4296 43.6405 37.4714 43.6007 37.4714 43.5515V43.4023C37.4714 43.3531 37.4296 43.3132 37.3781 43.3132Z" fill="#E0E0E0"/>
<path d="M45.1653 44.6169H26.9536C26.9021 44.6169 26.8604 44.6568 26.8604 44.7059V44.8551C26.8604 44.9043 26.9021 44.9442 26.9536 44.9442H45.1653C45.2168 44.9442 45.2586 44.9043 45.2586 44.8551V44.7059C45.2586 44.6568 45.2168 44.6169 45.1653 44.6169Z" fill="#E0E0E0"/>
<path d="M45.1653 45.5977H26.9536C26.9021 45.5977 26.8604 45.6375 26.8604 45.6867V45.8359C26.8604 45.8851 26.9021 45.925 26.9536 45.925H45.1653C45.2168 45.925 45.2586 45.8851 45.2586 45.8359V45.6867C45.2586 45.6375 45.2168 45.5977 45.1653 45.5977Z" fill="#E0E0E0"/>
<path d="M45.1653 46.9047H26.9536C26.9021 46.9047 26.8604 46.9445 26.8604 46.9937V47.1429C26.8604 47.1921 26.9021 47.232 26.9536 47.232H45.1653C45.2168 47.232 45.2586 47.1921 45.2586 47.1429V46.9937C45.2586 46.9445 45.2168 46.9047 45.1653 46.9047Z" fill="#E0E0E0"/>
<path d="M37.3781 47.8854H26.9536C26.9021 47.8854 26.8604 47.9253 26.8604 47.9745V48.1237C26.8604 48.1729 26.9021 48.2127 26.9536 48.2127H37.3781C37.4296 48.2127 37.4714 48.1729 37.4714 48.1237V47.9745C37.4714 47.9253 37.4296 47.8854 37.3781 47.8854Z" fill="#E0E0E0"/>
<g opacity="0.5">
<path opacity="0.5" d="M55.4665 34.7911H37.4658V54.9848H55.4665V34.7911Z" fill="url(#paint82_linear)"/>
</g>
<path d="M55.084 35.1161H38.0195V54.5384H55.084V35.1161Z" fill="white"/>
<g opacity="0.5">
<path opacity="0.5" d="M47.4809 38.2044V37.7156H45.6212V38.2044H44.3201V40.6013H48.7821V38.2044H47.4809ZM45.8486 37.8938H47.2477V38.2044H45.8486V37.8938Z" fill="url(#paint83_linear)"/>
</g>
<path d="M48.5944 38.2856H44.509V40.4799H48.5944V38.2856Z" fill="#6C63FF"/>
<path d="M45.7007 37.8381V38.407H45.9129V38.0007H47.1896V38.407H47.4029V37.8381H45.7007Z" fill="#6C63FF"/>
<path d="M52.5727 43.6372H40.573V44.1248H52.5727V43.6372Z" fill="#E0E0E0"/>
<path d="M52.5727 46.8468H40.573V47.3344H52.5727V46.8468Z" fill="#E0E0E0"/>
<path d="M52.5727 47.7007H40.573V48.1883H52.5727V47.7007Z" fill="#E0E0E0"/>
<path d="M45.6366 45.994H40.573V46.4816H45.6366V45.994Z" fill="#E0E0E0"/>
<path opacity="0.6" d="M52.5726 45.994H48.7856V46.4816H52.5726V45.994Z" fill="#3AD29F"/>
<path d="M48.5723 49.6912H44.7854V50.1788H48.5723V49.6912Z" fill="#6C63FF"/>
<path d="M15.0205 40.4521V77.531L43.0084 84.3876L43.3862 47.5882L15.0205 40.4521Z" fill="#535461"/>
<path d="M70.9977 77.3918L43.0085 84.3876V47.5882L70.9977 40.4521V77.3918Z" fill="#535461"/>
<path opacity="0.07" d="M70.9977 77.3918L43.0085 84.3876V47.5882L70.9977 40.4521V77.3918Z" fill="black"/>
<path opacity="0.07" d="M59.8608 65.079V77.2515L70.9977 74.3136V62.1399L59.8608 65.079Z" fill="black"/>
<path d="M64.6048 37.3594H56.3501V44.9319H64.6048V37.3594Z" fill="url(#paint84_linear)"/>
<path d="M64.4754 37.5442H56.4795V44.7772H64.4754V37.5442Z" fill="#F5F5F5"/>
<g opacity="0.5">
<path opacity="0.5" d="M61.1851 38.8123V38.436H59.7709V38.8078H58.781V40.6314H62.175V38.8123H61.1851ZM59.9481 38.5762H61.0091V38.8123H59.9481V38.5762Z" fill="url(#paint85_linear)"/>
</g>
<path opacity="0.6" d="M62.0305 38.8735H58.9233V40.5423H62.0305V38.8735Z" fill="#6C63FF"/>
<path opacity="0.6" d="M59.8306 38.5339V38.967H59.9926V38.6575H60.9638V38.967H61.1247V38.5339H59.8306Z" fill="#6C63FF"/>
<g opacity="0.6">
<path opacity="0.6" d="M61.9828 41.8415H59.1018V42.2122H61.9828V41.8415Z" fill="#6C63FF"/>
</g>
<path d="M62.9375 42.5217H58.0173V42.8924H62.9375V42.5217Z" fill="#BDBDBD"/>
<path d="M56.6917 0H48.437V7.57252H56.6917V0Z" fill="url(#paint86_linear)"/>
<path d="M56.5623 0.185913H48.5664V7.41888H56.5623V0.185913Z" fill="#F5F5F5"/>
<g opacity="0.5">
<path opacity="0.5" d="M53.2721 1.45281V1.08209H51.8578V1.45281H50.8679V3.27636H54.2619V1.45281H53.2721ZM52.035 1.2168H53.096V1.45281H52.035V1.2168Z" fill="url(#paint87_linear)"/>
</g>
<path opacity="0.6" d="M54.1174 1.51404H51.0103V3.18284H54.1174V1.51404Z" fill="#6C63FF"/>
<path opacity="0.6" d="M51.9172 1.1745V1.60757H52.0793V1.29807H53.0505V1.60757H53.2114V1.1745H51.9172Z" fill="#6C63FF"/>
<g opacity="0.6">
<path opacity="0.6" d="M54.0695 4.48206H51.1885V4.85278H54.0695V4.48206Z" fill="#6C63FF"/>
</g>
<path d="M55.0244 5.16223H50.1042V5.53295H55.0244V5.16223Z" fill="#BDBDBD"/>
<g opacity="0.5">
<path opacity="0.5" d="M47.4765 14.2098H36.7815V22.5984H47.4765V14.2098Z" fill="url(#paint88_linear)"/>
</g>
<path d="M47.3317 14.3691H36.906V22.4593H47.3317V14.3691Z" fill="#F2F2F2"/>
<path d="M47.3317 14.3691H36.906V16.1737H47.3317V14.3691Z" fill="#6C63FF"/>
<path opacity="0.1" d="M47.3317 14.3691H36.906V16.1737H47.3317V14.3691Z" fill="black"/>
<path d="M46.5015 16.8283H37.7373V17.8792H46.5015V16.8283Z" fill="#E0E0E0"/>
<path d="M44.1335 18.6719H37.7373V19.0292H44.1335V18.6719Z" fill="#E0E0E0"/>
<path d="M41.8903 19.2864H37.7373V19.6438H41.8903V19.2864Z" fill="#E0E0E0"/>
<path d="M43.2195 19.901H37.7373V20.2584H43.2195V19.901Z" fill="#E0E0E0"/>
<path d="M44.1335 20.5166H37.7373V20.874H44.1335V20.5166Z" fill="#E0E0E0"/>
<path d="M39.8768 21.1312H37.7373V21.4885H39.8768V21.1312Z" fill="#E0E0E0"/>
<g opacity="0.5">
<path opacity="0.5" d="M65.7614 20.5088H52.5049V30.9057H65.7614V20.5088Z" fill="url(#paint89_linear)"/>
</g>
<path d="M65.5818 20.7048H52.6599V30.7332H65.5818V20.7048Z" fill="white"/>
<path d="M65.5818 20.7048H52.6599V22.9414H65.5818V20.7048Z" fill="#6C63FF"/>
<path d="M64.5524 23.7529H53.6895V25.0555H64.5524V23.7529Z" fill="#F5F5F5"/>
<path d="M61.6177 26.0385H53.6895V26.4804H61.6177V26.0385Z" fill="#E0E0E0"/>
<path d="M58.8382 26.8011H53.6895V27.2431H58.8382V26.8011Z" fill="#E0E0E0"/>
<path d="M60.4844 27.5626H53.6895V28.0045H60.4844V27.5626Z" fill="#E0E0E0"/>
<path d="M61.6177 28.3251H53.6895V28.7671H61.6177V28.3251Z" fill="#E0E0E0"/>
<path d="M56.3407 29.0866H53.6895V29.5286H56.3407V29.0866Z" fill="#E0E0E0"/>
<path d="M57.3446 24.1949H54.2561V24.5879H57.3446V24.1949Z" fill="#69F0AE"/>
<path opacity="0.1" d="M14.6545 59.6918L30.3339 63.4691L42.9363 53.6745V47.6584L14.9472 40.942L14.6545 59.6918Z" fill="black"/>
<path opacity="0.1" d="M71.218 59.6918L55.5387 63.4691L42.9363 53.6745V47.6584L70.9254 40.942L71.218 59.6918Z" fill="black"/>
<path d="M15.0206 40.4521L0.659912 51.7853L28.6479 58.5017L43.0085 47.5882L15.0206 40.4521Z" fill="#535461"/>
<path d="M70.9977 40.4521L85.5052 51.7853L57.663 58.5017L43.0085 47.5882L70.9977 40.4521Z" fill="#535461"/>
<path opacity="0.07" d="M70.9977 40.4521L85.5052 51.7853L57.663 58.5017L43.0085 47.5882L70.9977 40.4521Z" fill="black"/>
</g>
<defs>
<linearGradient id="paint0_linear" x1="42.7158" y1="59.7074" x2="70.9463" y2="59.7074" gradientUnits="userSpaceOnUse">
<stop stop-color="#808080" stop-opacity="0.25"/>
<stop offset="0.54" stop-color="#808080" stop-opacity="0.12"/>
<stop offset="1" stop-color="#808080" stop-opacity="0.1"/>
</linearGradient>
<linearGradient id="paint1_linear" x1="42.7158" y1="59.7074" x2="70.9463" y2="59.7074" gradientUnits="userSpaceOnUse">
<stop stop-color="#808080" stop-opacity="0.25"/>
<stop offset="0.54" stop-color="#808080" stop-opacity="0.12"/>
<stop offset="1" stop-color="#808080" stop-opacity="0.1"/>
</linearGradient>
<linearGradient id="paint2_linear" x1="3521.7" y1="27283" x2="10357.7" y2="27283" gradientUnits="userSpaceOnUse">
<stop stop-color="#808080" stop-opacity="0.25"/>
<stop offset="0.54" stop-color="#808080" stop-opacity="0.12"/>
<stop offset="1" stop-color="#808080" stop-opacity="0.1"/>
</linearGradient>
<linearGradient id="paint3_linear" x1="3521.7" y1="27283" x2="10357.7" y2="27283" gradientUnits="userSpaceOnUse">
<stop stop-color="#808080" stop-opacity="0.25"/>
<stop offset="0.54" stop-color="#808080" stop-opacity="0.12"/>
<stop offset="1" stop-color="#808080" stop-opacity="0.1"/>
</linearGradient>
<linearGradient id="paint4_linear" x1="15746.4" y1="5176.59" x2="31504" y2="5176.59" gradientUnits="userSpaceOnUse">
<stop stop-color="#808080" stop-opacity="0.25"/>
<stop offset="0.54" stop-color="#808080" stop-opacity="0.12"/>
<stop offset="1" stop-color="#808080" stop-opacity="0.1"/>
</linearGradient>
<linearGradient id="paint5_linear" x1="0" y1="5176.59" x2="15649.8" y2="5176.59" gradientUnits="userSpaceOnUse">
<stop stop-color="#808080" stop-opacity="0.25"/>
<stop offset="0.54" stop-color="#808080" stop-opacity="0.12"/>
<stop offset="1" stop-color="#808080" stop-opacity="0.1"/>
</linearGradient>
<linearGradient id="paint6_linear" x1="0" y1="5176.59" x2="15649.8" y2="5176.59" gradientUnits="userSpaceOnUse">
<stop stop-color="#808080" stop-opacity="0.25"/>
<stop offset="0.54" stop-color="#808080" stop-opacity="0.12"/>
<stop offset="1" stop-color="#808080" stop-opacity="0.1"/>
</linearGradient>
<linearGradient id="paint7_linear" x1="5818.48" y1="7803.76" x2="5818.48" y2="4742.85" gradientUnits="userSpaceOnUse">
<stop stop-color="#808080" stop-opacity="0.25"/>
<stop offset="0.54" stop-color="#808080" stop-opacity="0.12"/>
<stop offset="1" stop-color="#808080" stop-opacity="0.1"/>
</linearGradient>
<linearGradient id="paint8_linear" x1="3890.49" y1="6108.99" x2="7484.83" y2="6108.99" gradientUnits="userSpaceOnUse">
<stop stop-color="#808080" stop-opacity="0.25"/>
<stop offset="0.54" stop-color="#808080" stop-opacity="0.12"/>
<stop offset="1" stop-color="#808080" stop-opacity="0.1"/>
</linearGradient>
<linearGradient id="paint9_linear" x1="722.699" y1="911.607" x2="824.921" y2="911.607" gradientUnits="userSpaceOnUse">
<stop stop-color="#808080" stop-opacity="0.25"/>
<stop offset="0.54" stop-color="#808080" stop-opacity="0.12"/>
<stop offset="1" stop-color="#808080" stop-opacity="0.1"/>
</linearGradient>
<linearGradient id="paint10_linear" x1="3335.46" y1="125.386" x2="4950.92" y2="125.386" gradientUnits="userSpaceOnUse">
<stop stop-color="#808080" stop-opacity="0.25"/>
<stop offset="0.54" stop-color="#808080" stop-opacity="0.12"/>
<stop offset="1" stop-color="#808080" stop-opacity="0.1"/>
</linearGradient>
<linearGradient id="paint11_linear" x1="3335.46" y1="129.302" x2="4950.92" y2="129.302" gradientUnits="userSpaceOnUse">
<stop stop-color="#808080" stop-opacity="0.25"/>
<stop offset="0.54" stop-color="#808080" stop-opacity="0.12"/>
<stop offset="1" stop-color="#808080" stop-opacity="0.1"/>
</linearGradient>
<linearGradient id="paint12_linear" x1="3726.09" y1="143.522" x2="6679.59" y2="143.522" gradientUnits="userSpaceOnUse">
<stop stop-color="#808080" stop-opacity="0.25"/>
<stop offset="0.54" stop-color="#808080" stop-opacity="0.12"/>
<stop offset="1" stop-color="#808080" stop-opacity="0.1"/>
</linearGradient>
<linearGradient id="paint13_linear" x1="3726.09" y1="147.431" x2="6679.59" y2="147.431" gradientUnits="userSpaceOnUse">
<stop stop-color="#808080" stop-opacity="0.25"/>
<stop offset="0.54" stop-color="#808080" stop-opacity="0.12"/>
<stop offset="1" stop-color="#808080" stop-opacity="0.1"/>
</linearGradient>
<linearGradient id="paint14_linear" x1="3726.09" y1="152.656" x2="6679.59" y2="152.656" gradientUnits="userSpaceOnUse">
<stop stop-color="#808080" stop-opacity="0.25"/>
<stop offset="0.54" stop-color="#808080" stop-opacity="0.12"/>
<stop offset="1" stop-color="#808080" stop-opacity="0.1"/>
</linearGradient>
<linearGradient id="paint15_linear" x1="2158.74" y1="156.573" x2="3141.08" y2="156.573" gradientUnits="userSpaceOnUse">
<stop stop-color="#808080" stop-opacity="0.25"/>
<stop offset="0.54" stop-color="#808080" stop-opacity="0.12"/>
<stop offset="1" stop-color="#808080" stop-opacity="0.1"/>
</linearGradient>
<linearGradient id="paint16_linear" x1="3726.09" y1="161.782" x2="6679.59" y2="161.782" gradientUnits="userSpaceOnUse">
<stop stop-color="#808080" stop-opacity="0.25"/>
<stop offset="0.54" stop-color="#808080" stop-opacity="0.12"/>
<stop offset="1" stop-color="#808080" stop-opacity="0.1"/>
</linearGradient>
<linearGradient id="paint17_linear" x1="3726.09" y1="165.693" x2="6679.59" y2="165.693" gradientUnits="userSpaceOnUse">
<stop stop-color="#808080" stop-opacity="0.25"/>
<stop offset="0.54" stop-color="#808080" stop-opacity="0.12"/>
<stop offset="1" stop-color="#808080" stop-opacity="0.1"/>
</linearGradient>
<linearGradient id="paint18_linear" x1="3726.09" y1="170.917" x2="6679.59" y2="170.917" gradientUnits="userSpaceOnUse">
<stop stop-color="#808080" stop-opacity="0.25"/>
<stop offset="0.54" stop-color="#808080" stop-opacity="0.12"/>
<stop offset="1" stop-color="#808080" stop-opacity="0.1"/>
</linearGradient>
<linearGradient id="paint19_linear" x1="2158.74" y1="174.836" x2="3141.08" y2="174.836" gradientUnits="userSpaceOnUse">
<stop stop-color="#808080" stop-opacity="0.25"/>
<stop offset="0.54" stop-color="#808080" stop-opacity="0.12"/>
<stop offset="1" stop-color="#808080" stop-opacity="0.1"/>
</linearGradient>
<linearGradient id="paint20_linear" x1="6389.91" y1="8515.42" x2="6389.91" y2="5454.32" gradientUnits="userSpaceOnUse">
<stop stop-color="#808080" stop-opacity="0.25"/>
<stop offset="0.54" stop-color="#808080" stop-opacity="0.12"/>
<stop offset="1" stop-color="#808080" stop-opacity="0.1"/>
</linearGradient>
<linearGradient id="paint21_linear" x1="4448.83" y1="6803.5" x2="8043.17" y2="6803.5" gradientUnits="userSpaceOnUse">
<stop stop-color="#808080" stop-opacity="0.25"/>
<stop offset="0.54" stop-color="#808080" stop-opacity="0.12"/>
<stop offset="1" stop-color="#808080" stop-opacity="0.1"/>
</linearGradient>
<linearGradient id="paint22_linear" x1="819.489" y1="1029.56" x2="921.711" y2="1029.56" gradientUnits="userSpaceOnUse">
<stop stop-color="#808080" stop-opacity="0.25"/>
<stop offset="0.54" stop-color="#808080" stop-opacity="0.12"/>
<stop offset="1" stop-color="#808080" stop-opacity="0.1"/>
</linearGradient>
<linearGradient id="paint23_linear" x1="3710.95" y1="142.279" x2="5326.41" y2="142.279" gradientUnits="userSpaceOnUse">
<stop stop-color="#808080" stop-opacity="0.25"/>
<stop offset="0.54" stop-color="#808080" stop-opacity="0.12"/>
<stop offset="1" stop-color="#808080" stop-opacity="0.1"/>
</linearGradient>
<linearGradient id="paint24_linear" x1="3710.95" y1="146.197" x2="5326.41" y2="146.197" gradientUnits="userSpaceOnUse">
<stop stop-color="#808080" stop-opacity="0.25"/>
<stop offset="0.54" stop-color="#808080" stop-opacity="0.12"/>
<stop offset="1" stop-color="#808080" stop-opacity="0.1"/>
</linearGradient>
<linearGradient id="paint25_linear" x1="4232.51" y1="160.407" x2="7186.2" y2="160.407" gradientUnits="userSpaceOnUse">
<stop stop-color="#808080" stop-opacity="0.25"/>
<stop offset="0.54" stop-color="#808080" stop-opacity="0.12"/>
<stop offset="1" stop-color="#808080" stop-opacity="0.1"/>
</linearGradient>
<linearGradient id="paint26_linear" x1="4232.51" y1="164.328" x2="7186.2" y2="164.328" gradientUnits="userSpaceOnUse">
<stop stop-color="#808080" stop-opacity="0.25"/>
<stop offset="0.54" stop-color="#808080" stop-opacity="0.12"/>
<stop offset="1" stop-color="#808080" stop-opacity="0.1"/>
</linearGradient>
<linearGradient id="paint27_linear" x1="4232.51" y1="169.549" x2="7186.2" y2="169.549" gradientUnits="userSpaceOnUse">
<stop stop-color="#808080" stop-opacity="0.25"/>
<stop offset="0.54" stop-color="#808080" stop-opacity="0.12"/>
<stop offset="1" stop-color="#808080" stop-opacity="0.1"/>
</linearGradient>
<linearGradient id="paint28_linear" x1="2452.14" y1="173.462" x2="3434.48" y2="173.462" gradientUnits="userSpaceOnUse">
<stop stop-color="#808080" stop-opacity="0.25"/>
<stop offset="0.54" stop-color="#808080" stop-opacity="0.12"/>
<stop offset="1" stop-color="#808080" stop-opacity="0.1"/>
</linearGradient>
<linearGradient id="paint29_linear" x1="4232.51" y1="178.676" x2="7186.2" y2="178.676" gradientUnits="userSpaceOnUse">
<stop stop-color="#808080" stop-opacity="0.25"/>
<stop offset="0.54" stop-color="#808080" stop-opacity="0.12"/>
<stop offset="1" stop-color="#808080" stop-opacity="0.1"/>
</linearGradient>
<linearGradient id="paint30_linear" x1="4232.51" y1="182.586" x2="7186.2" y2="182.586" gradientUnits="userSpaceOnUse">
<stop stop-color="#808080" stop-opacity="0.25"/>
<stop offset="0.54" stop-color="#808080" stop-opacity="0.12"/>
<stop offset="1" stop-color="#808080" stop-opacity="0.1"/>
</linearGradient>
<linearGradient id="paint31_linear" x1="4232.51" y1="187.807" x2="7186.2" y2="187.807" gradientUnits="userSpaceOnUse">
<stop stop-color="#808080" stop-opacity="0.25"/>
<stop offset="0.54" stop-color="#808080" stop-opacity="0.12"/>
<stop offset="1" stop-color="#808080" stop-opacity="0.1"/>
</linearGradient>
<linearGradient id="paint32_linear" x1="2452.14" y1="191.729" x2="3434.48" y2="191.729" gradientUnits="userSpaceOnUse">
<stop stop-color="#808080" stop-opacity="0.25"/>
<stop offset="0.54" stop-color="#808080" stop-opacity="0.12"/>
<stop offset="1" stop-color="#808080" stop-opacity="0.1"/>
</linearGradient>
<linearGradient id="paint33_linear" x1="7231.69" y1="10180.9" x2="7231.69" y2="6454.23" gradientUnits="userSpaceOnUse">
<stop stop-color="#808080" stop-opacity="0.25"/>
<stop offset="0.54" stop-color="#808080" stop-opacity="0.12"/>
<stop offset="1" stop-color="#808080" stop-opacity="0.1"/>
</linearGradient>
<linearGradient id="paint34_linear" x1="5600.39" y1="7990.67" x2="8141.12" y2="7990.67" gradientUnits="userSpaceOnUse">
<stop stop-color="#808080" stop-opacity="0.25"/>
<stop offset="0.54" stop-color="#808080" stop-opacity="0.12"/>
<stop offset="1" stop-color="#808080" stop-opacity="0.1"/>
</linearGradient>
<linearGradient id="paint35_linear" x1="2879.37" y1="1305.02" x2="2879.37" y2="1229.01" gradientUnits="userSpaceOnUse">
<stop stop-color="#808080" stop-opacity="0.25"/>
<stop offset="0.54" stop-color="#808080" stop-opacity="0.12"/>
<stop offset="1" stop-color="#808080" stop-opacity="0.1"/>
</linearGradient>
<linearGradient id="paint36_linear" x1="1607.26" y1="828.166" x2="1752.87" y2="828.166" gradientUnits="userSpaceOnUse">
<stop stop-color="#808080" stop-opacity="0.25"/>
<stop offset="0.54" stop-color="#808080" stop-opacity="0.12"/>
<stop offset="1" stop-color="#808080" stop-opacity="0.1"/>
</linearGradient>
<linearGradient id="paint37_linear" x1="714.163" y1="236.541" x2="739.426" y2="236.541" gradientUnits="userSpaceOnUse">
<stop stop-color="#808080" stop-opacity="0.25"/>
<stop offset="0.54" stop-color="#808080" stop-opacity="0.12"/>
<stop offset="1" stop-color="#808080" stop-opacity="0.1"/>
</linearGradient>
<linearGradient id="paint38_linear" x1="4219.45" y1="239.609" x2="5475.91" y2="239.609" gradientUnits="userSpaceOnUse">
<stop stop-color="#808080" stop-opacity="0.25"/>
<stop offset="0.54" stop-color="#808080" stop-opacity="0.12"/>
<stop offset="1" stop-color="#808080" stop-opacity="0.1"/>
</linearGradient>
<linearGradient id="paint39_linear" x1="4219.45" y1="257.151" x2="5475.91" y2="257.151" gradientUnits="userSpaceOnUse">
<stop stop-color="#808080" stop-opacity="0.25"/>
<stop offset="0.54" stop-color="#808080" stop-opacity="0.12"/>
<stop offset="1" stop-color="#808080" stop-opacity="0.1"/>
</linearGradient>
<linearGradient id="paint40_linear" x1="4219.45" y1="261.83" x2="5475.91" y2="261.83" gradientUnits="userSpaceOnUse">
<stop stop-color="#808080" stop-opacity="0.25"/>
<stop offset="0.54" stop-color="#808080" stop-opacity="0.12"/>
<stop offset="1" stop-color="#808080" stop-opacity="0.1"/>
</linearGradient>
<linearGradient id="paint41_linear" x1="1803.97" y1="252.491" x2="2027.74" y2="252.491" gradientUnits="userSpaceOnUse">
<stop stop-color="#808080" stop-opacity="0.25"/>
<stop offset="0.54" stop-color="#808080" stop-opacity="0.12"/>
<stop offset="1" stop-color="#808080" stop-opacity="0.1"/>
</linearGradient>
<linearGradient id="paint42_linear" x1="1638.79" y1="252.491" x2="1763.92" y2="252.491" gradientUnits="userSpaceOnUse">
<stop stop-color="#808080" stop-opacity="0.25"/>
<stop offset="0.54" stop-color="#808080" stop-opacity="0.12"/>
<stop offset="1" stop-color="#808080" stop-opacity="0.1"/>
</linearGradient>
<linearGradient id="paint43_linear" x1="1502.55" y1="272.703" x2="1627.71" y2="272.703" gradientUnits="userSpaceOnUse">
<stop stop-color="#808080" stop-opacity="0.25"/>
<stop offset="0.54" stop-color="#808080" stop-opacity="0.12"/>
<stop offset="1" stop-color="#808080" stop-opacity="0.1"/>
</linearGradient>
<linearGradient id="paint44_linear" x1="3521.7" y1="25099.7" x2="10357.7" y2="25099.7" gradientUnits="userSpaceOnUse">
<stop stop-color="#808080" stop-opacity="0.25"/>
<stop offset="0.54" stop-color="#808080" stop-opacity="0.12"/>
<stop offset="1" stop-color="#808080" stop-opacity="0.1"/>
</linearGradient>
<linearGradient id="paint45_linear" x1="10385.5" y1="25099.7" x2="17220.9" y2="25099.7" gradientUnits="userSpaceOnUse">
<stop stop-color="#808080" stop-opacity="0.25"/>
<stop offset="0.54" stop-color="#808080" stop-opacity="0.12"/>
<stop offset="1" stop-color="#808080" stop-opacity="0.1"/>
</linearGradient>
<linearGradient id="paint46_linear" x1="10385.5" y1="25099.7" x2="17220.9" y2="25099.7" gradientUnits="userSpaceOnUse">
<stop stop-color="#808080" stop-opacity="0.25"/>
<stop offset="0.54" stop-color="#808080" stop-opacity="0.12"/>
<stop offset="1" stop-color="#808080" stop-opacity="0.1"/>
</linearGradient>
<linearGradient id="paint47_linear" x1="5813.04" y1="9686.25" x2="6895.4" y2="9686.25" gradientUnits="userSpaceOnUse">
<stop stop-color="#808080" stop-opacity="0.25"/>
<stop offset="0.54" stop-color="#808080" stop-opacity="0.12"/>
<stop offset="1" stop-color="#808080" stop-opacity="0.1"/>
</linearGradient>
<linearGradient id="paint48_linear" x1="4364.7" y1="3146.65" x2="4364.7" y2="2622.59" gradientUnits="userSpaceOnUse">
<stop stop-color="#808080" stop-opacity="0.25"/>
<stop offset="0.54" stop-color="#808080" stop-opacity="0.12"/>
<stop offset="1" stop-color="#808080" stop-opacity="0.1"/>
</linearGradient>
<linearGradient id="paint49_linear" x1="3950.73" y1="2758.07" x2="4508.57" y2="2758.07" gradientUnits="userSpaceOnUse">
<stop stop-color="#808080" stop-opacity="0.25"/>
<stop offset="0.54" stop-color="#808080" stop-opacity="0.12"/>
<stop offset="1" stop-color="#808080" stop-opacity="0.1"/>
</linearGradient>
<linearGradient id="paint50_linear" x1="2628.55" y1="1003.41" x2="2628.55" y2="959.393" gradientUnits="userSpaceOnUse">
<stop stop-color="#808080" stop-opacity="0.25"/>
<stop offset="0.54" stop-color="#808080" stop-opacity="0.12"/>
<stop offset="1" stop-color="#808080" stop-opacity="0.1"/>
</linearGradient>
<linearGradient id="paint51_linear" x1="1638.42" y1="644.694" x2="1722.7" y2="644.694" gradientUnits="userSpaceOnUse">
<stop stop-color="#808080" stop-opacity="0.25"/>
<stop offset="0.54" stop-color="#808080" stop-opacity="0.12"/>
<stop offset="1" stop-color="#808080" stop-opacity="0.1"/>
</linearGradient>
<linearGradient id="paint52_linear" x1="728.723" y1="192.441" x2="743.361" y2="192.441" gradientUnits="userSpaceOnUse">
<stop stop-color="#808080" stop-opacity="0.25"/>
<stop offset="0.54" stop-color="#808080" stop-opacity="0.12"/>
<stop offset="1" stop-color="#808080" stop-opacity="0.1"/>
</linearGradient>
<linearGradient id="paint53_linear" x1="1527.9" y1="184.608" x2="1600.33" y2="184.608" gradientUnits="userSpaceOnUse">
<stop stop-color="#808080" stop-opacity="0.25"/>
<stop offset="0.54" stop-color="#808080" stop-opacity="0.12"/>
<stop offset="1" stop-color="#808080" stop-opacity="0.1"/>
</linearGradient>
<linearGradient id="paint54_linear" x1="2520.67" y1="187.594" x2="2731.96" y2="187.594" gradientUnits="userSpaceOnUse">
<stop stop-color="#808080" stop-opacity="0.25"/>
<stop offset="0.54" stop-color="#808080" stop-opacity="0.12"/>
<stop offset="1" stop-color="#808080" stop-opacity="0.1"/>
</linearGradient>
<linearGradient id="paint55_linear" x1="3906.42" y1="1746.19" x2="3906.42" y2="1103.16" gradientUnits="userSpaceOnUse">
<stop stop-color="#808080" stop-opacity="0.25"/>
<stop offset="0.54" stop-color="#808080" stop-opacity="0.12"/>
<stop offset="1" stop-color="#808080" stop-opacity="0.1"/>
</linearGradient>
<linearGradient id="paint56_linear" x1="3333.89" y1="1375.47" x2="4282.27" y2="1375.47" gradientUnits="userSpaceOnUse">
<stop stop-color="#808080" stop-opacity="0.25"/>
<stop offset="0.54" stop-color="#808080" stop-opacity="0.12"/>
<stop offset="1" stop-color="#808080" stop-opacity="0.1"/>
</linearGradient>
<linearGradient id="paint57_linear" x1="3333.89" y1="266.222" x2="4282.27" y2="266.222" gradientUnits="userSpaceOnUse">
<stop stop-color="#808080" stop-opacity="0.25"/>
<stop offset="0.54" stop-color="#808080" stop-opacity="0.12"/>
<stop offset="1" stop-color="#808080" stop-opacity="0.1"/>
</linearGradient>
<linearGradient id="paint58_linear" x1="3333.89" y1="266.222" x2="4282.27" y2="266.222" gradientUnits="userSpaceOnUse">
<stop stop-color="#808080" stop-opacity="0.25"/>
<stop offset="0.54" stop-color="#808080" stop-opacity="0.12"/>
<stop offset="1" stop-color="#808080" stop-opacity="0.1"/>
</linearGradient>
<linearGradient id="paint59_linear" x1="2872.92" y1="183.543" x2="3543.08" y2="183.543" gradientUnits="userSpaceOnUse">
<stop stop-color="#808080" stop-opacity="0.25"/>
<stop offset="0.54" stop-color="#808080" stop-opacity="0.12"/>
<stop offset="1" stop-color="#808080" stop-opacity="0.1"/>
</linearGradient>
<linearGradient id="paint60_linear" x1="2107.01" y1="80.221" x2="2464.01" y2="80.221" gradientUnits="userSpaceOnUse">
<stop stop-color="#808080" stop-opacity="0.25"/>
<stop offset="0.54" stop-color="#808080" stop-opacity="0.12"/>
<stop offset="1" stop-color="#808080" stop-opacity="0.1"/>
</linearGradient>
<linearGradient id="paint61_linear" x1="1381.11" y1="82.844" x2="1531.63" y2="82.844" gradientUnits="userSpaceOnUse">
<stop stop-color="#808080" stop-opacity="0.25"/>
<stop offset="0.54" stop-color="#808080" stop-opacity="0.12"/>
<stop offset="1" stop-color="#808080" stop-opacity="0.1"/>
</linearGradient>
<linearGradient id="paint62_linear" x1="1811.19" y1="85.4663" x2="2073.47" y2="85.4663" gradientUnits="userSpaceOnUse">
<stop stop-color="#808080" stop-opacity="0.25"/>
<stop offset="0.54" stop-color="#808080" stop-opacity="0.12"/>
<stop offset="1" stop-color="#808080" stop-opacity="0.1"/>
</linearGradient>
<linearGradient id="paint63_linear" x1="2107.01" y1="88.089" x2="2464.01" y2="88.089" gradientUnits="userSpaceOnUse">
<stop stop-color="#808080" stop-opacity="0.25"/>
<stop offset="0.54" stop-color="#808080" stop-opacity="0.12"/>
<stop offset="1" stop-color="#808080" stop-opacity="0.1"/>
</linearGradient>
<linearGradient id="paint64_linear" x1="729.262" y1="90.7113" x2="769.165" y2="90.7113" gradientUnits="userSpaceOnUse">
<stop stop-color="#808080" stop-opacity="0.25"/>
<stop offset="0.54" stop-color="#808080" stop-opacity="0.12"/>
<stop offset="1" stop-color="#808080" stop-opacity="0.1"/>
</linearGradient>
<linearGradient id="paint65_linear" x1="6816.03" y1="2956.23" x2="6816.03" y2="1968.55" gradientUnits="userSpaceOnUse">
<stop stop-color="#808080" stop-opacity="0.25"/>
<stop offset="0.54" stop-color="#808080" stop-opacity="0.12"/>
<stop offset="1" stop-color="#808080" stop-opacity="0.1"/>
</linearGradient>
<linearGradient id="paint66_linear" x1="5915.85" y1="2377.07" x2="7372.77" y2="2377.07" gradientUnits="userSpaceOnUse">
<stop stop-color="#808080" stop-opacity="0.25"/>
<stop offset="0.54" stop-color="#808080" stop-opacity="0.12"/>
<stop offset="1" stop-color="#808080" stop-opacity="0.1"/>
</linearGradient>
<linearGradient id="paint67_linear" x1="5915.85" y1="466.723" x2="7372.77" y2="466.723" gradientUnits="userSpaceOnUse">
<stop stop-color="#808080" stop-opacity="0.25"/>
<stop offset="0.54" stop-color="#808080" stop-opacity="0.12"/>
<stop offset="1" stop-color="#808080" stop-opacity="0.1"/>
</linearGradient>
<linearGradient id="paint68_linear" x1="5079.74" y1="314.34" x2="6109.29" y2="314.34" gradientUnits="userSpaceOnUse">
<stop stop-color="#808080" stop-opacity="0.25"/>
<stop offset="0.54" stop-color="#808080" stop-opacity="0.12"/>
<stop offset="1" stop-color="#808080" stop-opacity="0.1"/>
</linearGradient>
<linearGradient id="paint69_linear" x1="3722.22" y1="132.444" x2="4270.73" y2="132.444" gradientUnits="userSpaceOnUse">
<stop stop-color="#808080" stop-opacity="0.25"/>
<stop offset="0.54" stop-color="#808080" stop-opacity="0.12"/>
<stop offset="1" stop-color="#808080" stop-opacity="0.1"/>
</linearGradient>
<linearGradient id="paint70_linear" x1="2435.83" y1="136.297" x2="2667.13" y2="136.297" gradientUnits="userSpaceOnUse">
<stop stop-color="#808080" stop-opacity="0.25"/>
<stop offset="0.54" stop-color="#808080" stop-opacity="0.12"/>
<stop offset="1" stop-color="#808080" stop-opacity="0.1"/>
</linearGradient>
<linearGradient id="paint71_linear" x1="3198.04" y1="140.147" x2="3601.01" y2="140.147" gradientUnits="userSpaceOnUse">
<stop stop-color="#808080" stop-opacity="0.25"/>
<stop offset="0.54" stop-color="#808080" stop-opacity="0.12"/>
<stop offset="1" stop-color="#808080" stop-opacity="0.1"/>
</linearGradient>
<linearGradient id="paint72_linear" x1="3722.22" y1="143.994" x2="4270.73" y2="143.994" gradientUnits="userSpaceOnUse">
<stop stop-color="#808080" stop-opacity="0.25"/>
<stop offset="0.54" stop-color="#808080" stop-opacity="0.12"/>
<stop offset="1" stop-color="#808080" stop-opacity="0.1"/>
</linearGradient>
<linearGradient id="paint73_linear" x1="1280.5" y1="147.848" x2="1341.85" y2="147.848" gradientUnits="userSpaceOnUse">
<stop stop-color="#808080" stop-opacity="0.25"/>
<stop offset="0.54" stop-color="#808080" stop-opacity="0.12"/>
<stop offset="1" stop-color="#808080" stop-opacity="0.1"/>
</linearGradient>
<linearGradient id="paint74_linear" x1="1498.52" y1="111.965" x2="1581.76" y2="111.965" gradientUnits="userSpaceOnUse">
<stop stop-color="#808080" stop-opacity="0.25"/>
<stop offset="0.54" stop-color="#808080" stop-opacity="0.12"/>
<stop offset="1" stop-color="#808080" stop-opacity="0.1"/>
</linearGradient>
<linearGradient id="paint75_linear" x1="3467.69" y1="10787.2" x2="10446.7" y2="10787.2" gradientUnits="userSpaceOnUse">
<stop stop-color="#808080" stop-opacity="0.25"/>
<stop offset="0.54" stop-color="#808080" stop-opacity="0.12"/>
<stop offset="1" stop-color="#808080" stop-opacity="0.1"/>
</linearGradient>
<linearGradient id="paint76_linear" x1="10475.7" y1="10787.2" x2="17455.3" y2="10787.2" gradientUnits="userSpaceOnUse">
<stop stop-color="#808080" stop-opacity="0.25"/>
<stop offset="0.54" stop-color="#808080" stop-opacity="0.12"/>
<stop offset="1" stop-color="#808080" stop-opacity="0.1"/>
</linearGradient>
<linearGradient id="paint77_linear" x1="0" y1="8201.16" x2="15649.8" y2="8201.16" gradientUnits="userSpaceOnUse">
<stop stop-color="#808080" stop-opacity="0.25"/>
<stop offset="0.54" stop-color="#808080" stop-opacity="0.12"/>
<stop offset="1" stop-color="#808080" stop-opacity="0.1"/>
</linearGradient>
<linearGradient id="paint78_linear" x1="15746.4" y1="8201.16" x2="31504" y2="8201.16" gradientUnits="userSpaceOnUse">
<stop stop-color="#808080" stop-opacity="0.25"/>
<stop offset="0.54" stop-color="#808080" stop-opacity="0.12"/>
<stop offset="1" stop-color="#808080" stop-opacity="0.1"/>
</linearGradient>
<linearGradient id="paint79_linear" x1="15746.4" y1="8201.16" x2="31504" y2="8201.16" gradientUnits="userSpaceOnUse">
<stop stop-color="#808080" stop-opacity="0.25"/>
<stop offset="0.54" stop-color="#808080" stop-opacity="0.12"/>
<stop offset="1" stop-color="#808080" stop-opacity="0.1"/>
</linearGradient>
<linearGradient id="paint80_linear" x1="5837.42" y1="7671.96" x2="5837.42" y2="4663.07" gradientUnits="userSpaceOnUse">
<stop stop-color="#808080" stop-opacity="0.25"/>
<stop offset="0.54" stop-color="#808080" stop-opacity="0.12"/>
<stop offset="1" stop-color="#808080" stop-opacity="0.1"/>
</linearGradient>
<linearGradient id="paint81_linear" x1="6399.38" y1="8371.5" x2="6399.38" y2="5362.6" gradientUnits="userSpaceOnUse">
<stop stop-color="#808080" stop-opacity="0.25"/>
<stop offset="0.54" stop-color="#808080" stop-opacity="0.12"/>
<stop offset="1" stop-color="#808080" stop-opacity="0.1"/>
</linearGradient>
<linearGradient id="paint82_linear" x1="7211.45" y1="10008.5" x2="7211.45" y2="6345.54" gradientUnits="userSpaceOnUse">
<stop stop-color="#808080" stop-opacity="0.25"/>
<stop offset="0.54" stop-color="#808080" stop-opacity="0.12"/>
<stop offset="1" stop-color="#808080" stop-opacity="0.1"/>
</linearGradient>
<linearGradient id="paint83_linear" x1="2865.5" y1="1285.61" x2="2865.5" y2="1210.81" gradientUnits="userSpaceOnUse">
<stop stop-color="#808080" stop-opacity="0.25"/>
<stop offset="0.54" stop-color="#808080" stop-opacity="0.12"/>
<stop offset="1" stop-color="#808080" stop-opacity="0.1"/>
</linearGradient>
<linearGradient id="paint84_linear" x1="4338.15" y1="3093.62" x2="4338.15" y2="2578.54" gradientUnits="userSpaceOnUse">
<stop stop-color="#808080" stop-opacity="0.25"/>
<stop offset="0.54" stop-color="#808080" stop-opacity="0.12"/>
<stop offset="1" stop-color="#808080" stop-opacity="0.1"/>
</linearGradient>
<linearGradient id="paint85_linear" x1="2610.09" y1="988.512" x2="2610.09" y2="945.241" gradientUnits="userSpaceOnUse">
<stop stop-color="#808080" stop-opacity="0.25"/>
<stop offset="0.54" stop-color="#808080" stop-opacity="0.12"/>
<stop offset="1" stop-color="#808080" stop-opacity="0.1"/>
</linearGradient>
<linearGradient id="paint86_linear" x1="3769.99" y1="515.083" x2="3769.99" y2="0" gradientUnits="userSpaceOnUse">
<stop stop-color="#808080" stop-opacity="0.25"/>
<stop offset="0.54" stop-color="#808080" stop-opacity="0.12"/>
<stop offset="1" stop-color="#808080" stop-opacity="0.1"/>
</linearGradient>
<linearGradient id="paint87_linear" x1="2371.83" y1="214.321" x2="2371.83" y2="171.072" gradientUnits="userSpaceOnUse">
<stop stop-color="#808080" stop-opacity="0.25"/>
<stop offset="0.54" stop-color="#808080" stop-opacity="0.12"/>
<stop offset="1" stop-color="#808080" stop-opacity="0.1"/>
</linearGradient>
<linearGradient id="paint88_linear" x1="3901.32" y1="1717" x2="3901.32" y2="1084.92" gradientUnits="userSpaceOnUse">
<stop stop-color="#808080" stop-opacity="0.25"/>
<stop offset="0.54" stop-color="#808080" stop-opacity="0.12"/>
<stop offset="1" stop-color="#808080" stop-opacity="0.1"/>
</linearGradient>
<linearGradient id="paint89_linear" x1="6775.96" y1="2906.8" x2="6775.96" y2="1935.83" gradientUnits="userSpaceOnUse">
<stop stop-color="#808080" stop-opacity="0.25"/>
<stop offset="0.54" stop-color="#808080" stop-opacity="0.12"/>
<stop offset="1" stop-color="#808080" stop-opacity="0.1"/>
</linearGradient>
<clipPath id="clip0">
<rect width="85.5786" height="85.1102" fill="white"/>
</clipPath>
</defs>
</svg>
