<svg width="58" height="68" viewBox="0 0 58 68" fill="none" xmlns="http://www.w3.org/2000/svg">
<path d="M54.375 27.1377V29.8347C54.3852 30.5985 54.3547 31.3598 54.2887 32.1212C54.2202 32.8826 54.1161 33.6392 53.9714 34.391C53.8267 35.1428 53.6465 35.8875 53.4281 36.6226C53.2073 37.3601 52.9509 38.0833 52.659 38.7969C52.367 39.5105 52.0396 40.2075 51.6766 40.8925C51.3136 41.5775 50.915 42.2434 50.4835 42.8926C50.0545 43.5417 49.5899 44.1695 49.0974 44.7781C48.6024 45.3843 48.0795 45.9691 47.5236 46.5323C46.9702 47.0932 46.3914 47.6278 45.7822 48.1386C45.1754 48.6494 44.5434 49.1315 43.8859 49.585C43.2284 50.0385 42.5506 50.4633 41.8525 50.8571C41.1519 51.2509 40.4335 51.6137 39.6973 51.9431C38.9612 52.2748 38.2098 52.5708 37.4431 52.8357C36.6765 53.0982 35.8997 53.3274 35.1102 53.5231C34.3208 53.7164 33.5237 53.8763 32.7164 54.0004C31.9117 54.1245 31.1019 54.2129 30.2871 54.2654C29.4291 54.3059 28.571 54.3059 27.713 54.2654C26.855 54.2248 26.0021 54.1436 25.1542 54.0219C24.3063 53.9002 23.4661 53.7403 22.6335 53.5374C21.8034 53.3369 20.986 53.0959 20.1813 52.8166C19.374 52.5374 18.5871 52.2199 17.8154 51.8667C17.0462 51.5135 16.2948 51.1244 15.5663 50.6972C14.8402 50.2724 14.1345 49.8141 13.4568 49.3224C12.779 48.8308 12.1266 48.3081 11.5046 47.7543C10.8827 47.2006 10.2938 46.6183 9.7353 46.0096C9.17683 45.3986 8.65136 44.7638 8.16142 44.105C7.67149 43.4463 7.2171 42.7637 6.80332 42.062C6.387 41.3579 6.00877 40.6395 5.67114 39.8996C5.33352 39.1621 5.03652 38.4103 4.78013 37.6417C4.52374 36.8756 4.3105 36.0999 4.13788 35.3123C3.96527 34.5247 3.83834 33.7323 3.75203 32.9327C3.66572 32.1331 3.62257 31.3336 3.6251 30.5293V27.1377H0.000112035V30.5293C-0.00242696 31.3837 0.0381892 32.2358 0.121961 33.0854C0.20827 33.9375 0.335195 34.7824 0.505276 35.6202C0.672818 36.4603 0.886052 37.2909 1.13736 38.1119C1.39122 38.9306 1.68568 39.7397 2.02077 40.5345C2.35585 41.3292 2.72901 42.1073 3.14279 42.8687C3.55657 43.6301 4.00842 44.3699 4.49581 45.0931C4.98575 45.8139 5.50868 46.5132 6.06715 47.1887C6.62562 47.8641 7.2171 48.5133 7.84157 49.1363C8.46858 49.7592 9.12098 50.3535 9.80638 50.9192C10.4918 51.4848 11.2026 52.0171 11.9413 52.5207C12.68 53.0219 13.4415 53.4921 14.2259 53.9264C15.0129 54.3608 15.8176 54.7618 16.6451 55.1246C17.4701 55.4898 18.3129 55.8144 19.1735 56.1055C20.0315 56.3943 20.9022 56.6449 21.7881 56.8574C22.6715 57.0698 23.5651 57.244 24.4663 57.3777C25.37 57.5089 26.2762 57.6044 27.1876 57.6569V64.4376H16.3126V67.8292H41.6875V64.4376H30.8125V57.6569C31.7239 57.6044 32.6301 57.5089 33.5313 57.3777C34.4325 57.244 35.326 57.0698 36.212 56.8574C37.0954 56.6449 37.9661 56.3943 38.8266 56.1055C39.6846 55.8144 40.5274 55.4898 41.355 55.1246C42.18 54.7618 42.9872 54.3608 43.7716 53.9264C44.5586 53.4921 45.3201 53.0219 46.0588 52.5207C46.7976 52.0171 47.5083 51.4848 48.1937 50.9192C48.8766 50.3535 49.5315 49.7592 50.156 49.1363C50.7805 48.5133 51.3719 47.8641 51.9304 47.1887C52.4889 46.5132 53.0144 45.8139 53.5018 45.0931C53.9917 44.3699 54.441 43.6301 54.8548 42.8687C55.2686 42.1073 55.6417 41.3292 55.9768 40.5345C56.3119 39.7397 56.6064 38.9306 56.8602 38.1119C57.1141 37.2909 57.3248 36.4603 57.4948 35.6202C57.6649 34.7824 57.7918 33.9375 57.8756 33.0854C57.9594 32.2358 58 31.3837 58 30.5293V27.1377H54.375Z" fill="#FAFAFA"/>
<path d="M12.6877 23.7486V13.5763C12.6877 13.3496 12.7334 13.1347 12.8248 12.9271C12.9162 12.7195 13.0482 12.5357 13.2183 12.3758C13.3884 12.2182 13.5838 12.0941 13.8072 12.0082C14.0281 11.9223 14.2591 11.8793 14.5002 11.8793C14.7389 11.8793 14.9724 11.9223 15.1933 12.0082C15.4141 12.0941 15.6121 12.2182 15.7822 12.3758C15.9523 12.5357 16.0817 12.7195 16.1731 12.9271C16.267 13.1347 16.3127 13.3496 16.3127 13.5763V27.1377C16.3127 27.3645 16.3584 27.5793 16.4498 27.7869C16.5412 27.9946 16.6732 28.1784 16.8433 28.3383C17.0134 28.4958 17.2088 28.6199 17.4322 28.7058C17.6531 28.7917 17.8841 28.8347 18.1252 28.8347C18.3639 28.8347 18.5974 28.7917 18.8182 28.7058C19.0391 28.6199 19.2371 28.4958 19.4072 28.3383C19.5773 28.1784 19.7067 27.9946 19.7981 27.7869C19.892 27.5793 19.9377 27.3645 19.9377 27.1377V16.9655C19.9377 16.7411 19.9834 16.5239 20.0748 16.3163C20.1662 16.1086 20.2982 15.9272 20.4683 15.7673C20.6384 15.6074 20.8338 15.4857 21.0572 15.3998C21.2781 15.3138 21.5091 15.2709 21.7502 15.2709C21.9889 15.2709 22.2224 15.3138 22.4432 15.3998C22.6641 15.4857 22.8621 15.6074 23.0322 15.7673C23.2023 15.9272 23.3317 16.1086 23.4231 16.3163C23.517 16.5239 23.5627 16.7411 23.5627 16.9655V18.6624C23.5627 18.8868 23.6084 19.1016 23.6998 19.3092C23.7912 19.5169 23.9232 19.7007 24.0933 19.8606C24.2634 20.0205 24.4588 20.1422 24.6822 20.2281C24.9031 20.3141 25.1341 20.357 25.3752 20.357C25.6138 20.357 25.8474 20.3141 26.0682 20.2281C26.2891 20.1422 26.4871 20.0205 26.6572 19.8606C26.8273 19.7007 26.9567 19.5169 27.0481 19.3092C27.142 19.1016 27.1877 18.8868 27.1877 18.6624V10.1847C27.1877 9.96039 27.2334 9.7432 27.3248 9.53555C27.4162 9.3279 27.5482 9.14413 27.7183 8.9866C27.8884 8.82669 28.0838 8.70497 28.3072 8.61904C28.5281 8.53074 28.7591 8.48777 29.0002 8.48777C29.2388 8.48777 29.4724 8.53074 29.6932 8.61904C29.9141 8.70497 30.1121 8.82669 30.2822 8.9866C30.4523 9.14413 30.5817 9.3279 30.6731 9.53555C30.767 9.7432 30.8127 9.96039 30.8127 10.1847V25.4431C30.8127 25.6675 30.8584 25.8847 30.9498 26.0923C31.0412 26.3 31.1732 26.4838 31.3433 26.6413C31.5134 26.8012 31.7088 26.9229 31.9322 27.0088C32.1531 27.0948 32.3841 27.1377 32.6252 27.1377C32.8638 27.1377 33.0974 27.0948 33.3182 27.0088C33.5391 26.9229 33.7371 26.8012 33.9072 26.6413C34.0773 26.4838 34.2067 26.3 34.2981 26.0923C34.392 25.8847 34.4377 25.6675 34.4377 25.4431V13.5763C34.4377 13.3496 34.4834 13.1347 34.5748 12.9271C34.6662 12.7195 34.7982 12.5357 34.9683 12.3758C35.1384 12.2182 35.3338 12.0941 35.5572 12.0082C35.7781 11.9223 36.0091 11.8793 36.2502 11.8793C36.4888 11.8793 36.7224 11.9223 36.9432 12.0082C37.1641 12.0941 37.3621 12.2182 37.5322 12.3758C37.7022 12.5357 37.8317 12.7195 37.9231 12.9271C38.017 13.1347 38.0627 13.3496 38.0627 13.5763V16.9655C38.0627 17.1898 38.1084 17.407 38.1998 17.6147C38.2912 17.8223 38.4232 18.0061 38.5933 18.166C38.7633 18.3235 38.9588 18.4476 39.1822 18.5335C39.4031 18.6195 39.6341 18.6624 39.8752 18.6624C40.1138 18.6624 40.3474 18.6195 40.5682 18.5335C40.7891 18.4476 40.9871 18.3235 41.1572 18.166C41.3272 18.0061 41.4567 17.8223 41.5481 17.6147C41.642 17.407 41.6877 17.1898 41.6877 16.9655V15.2709C41.6877 15.0465 41.7334 14.8293 41.8248 14.6217C41.9162 14.414 42.0482 14.2303 42.2183 14.0727C42.3883 13.9128 42.5838 13.7911 42.8072 13.7052C43.0281 13.6193 43.2591 13.5763 43.5002 13.5763C43.7388 13.5763 43.9724 13.6193 44.1932 13.7052C44.4141 13.7911 44.6121 13.9128 44.7822 14.0727C44.9522 14.2303 45.0817 14.414 45.1731 14.6217C45.267 14.8293 45.3127 15.0465 45.3127 15.2709V23.7486H50.7502V20.9513C50.7578 20.3164 50.7324 19.6816 50.6791 19.0491C50.6233 18.4166 50.537 17.7865 50.4202 17.1612C50.3034 16.5358 50.1587 15.9177 49.981 15.3043C49.8033 14.6909 49.5952 14.0871 49.3591 13.4928C49.123 12.8961 48.859 12.3137 48.5645 11.7409C48.2701 11.1681 47.9502 10.6096 47.6025 10.0654C47.2521 9.52123 46.879 8.99137 46.4779 8.47823C46.0793 7.96746 45.6529 7.47102 45.2061 6.99606C44.7568 6.51872 44.2846 6.06285 43.7921 5.62846C43.2997 5.19169 42.7844 4.7764 42.2513 4.38497C41.7156 3.99355 41.1648 3.62599 40.5936 3.2823C40.025 2.93622 39.4386 2.6164 38.837 2.32283C38.2353 2.02926 37.621 1.76195 36.994 1.52089C36.367 1.27744 35.7273 1.06502 35.08 0.87647C34.4301 0.690305 33.7752 0.53278 33.1101 0.401509C32.445 0.270239 31.7774 0.169996 31.1021 0.0960071C30.3482 0.0267919 29.5942 -0.00423555 28.8378 0.000537623C28.0813 0.00769799 27.3273 0.0482725 26.5759 0.127035C25.8245 0.205797 25.0782 0.322747 24.3395 0.473111C23.6008 0.625863 22.8723 0.812028 22.1539 1.03638C21.4355 1.25835 20.7323 1.51612 20.0418 1.8073C19.3539 2.09848 18.6812 2.42308 18.0288 2.7787C17.3738 3.13671 16.7443 3.52336 16.1325 3.94343C15.5233 4.36111 14.9394 4.80743 14.3784 5.28477C13.8174 5.75973 13.2868 6.26095 12.7817 6.78842C12.2765 7.31827 11.8043 7.86722 11.3626 8.44243C10.9184 9.01524 10.5097 9.60954 10.134 10.2229C9.75576 10.8363 9.4156 11.4688 9.10844 12.1156C8.80381 12.7624 8.53473 13.4235 8.30119 14.0966C8.07018 14.7697 7.87472 15.4523 7.71733 16.1444C7.56248 16.8366 7.44571 17.5359 7.36702 18.24C7.28832 18.9441 7.25024 19.6482 7.25024 20.357V23.7486H12.6877Z" fill="#FAFAFA"/>
<path d="M45.3125 27.1378V37.3125C45.3125 37.5368 45.2668 37.7516 45.1729 37.9593C45.0815 38.1669 44.952 38.3507 44.7819 38.5106C44.6118 38.6705 44.4138 38.7922 44.193 38.8782C43.9721 38.9641 43.7386 39.0071 43.5 39.0071C43.2588 39.0071 43.0278 38.9641 42.807 38.8782C42.5836 38.7922 42.3881 38.6705 42.218 38.5106C42.048 38.3507 41.916 38.1669 41.8246 37.9593C41.7332 37.7516 41.6875 37.5368 41.6875 37.3125V23.7486C41.6875 23.5243 41.6418 23.3071 41.5479 23.0994C41.4565 22.8918 41.327 22.708 41.1569 22.5481C40.9869 22.3906 40.7889 22.2664 40.568 22.1805C40.3472 22.0946 40.1136 22.0516 39.875 22.0516C39.6338 22.0516 39.4028 22.0946 39.182 22.1805C38.9586 22.2664 38.7631 22.3906 38.593 22.5481C38.423 22.708 38.291 22.8918 38.1996 23.0994C38.1082 23.3071 38.0625 23.5243 38.0625 23.7486V33.9209C38.0625 34.1453 38.0168 34.3625 37.9229 34.5701C37.8315 34.7777 37.702 34.9615 37.5319 35.1191C37.3619 35.279 37.1639 35.4007 36.943 35.4866C36.7222 35.5725 36.4886 35.6155 36.25 35.6155C36.0088 35.6155 35.7778 35.5725 35.557 35.4866C35.3336 35.4007 35.1381 35.279 34.9681 35.1191C34.798 34.9615 34.666 34.7777 34.5746 34.5701C34.4832 34.3625 34.4375 34.1453 34.4375 33.9209V32.2263C34.4375 31.9996 34.3918 31.7848 34.2979 31.5771C34.2065 31.3695 34.077 31.1857 33.907 31.0258C33.7369 30.8683 33.5389 30.7442 33.318 30.6582C33.0972 30.5723 32.8636 30.5293 32.625 30.5293C32.3839 30.5293 32.1528 30.5723 31.932 30.6582C31.7086 30.7442 31.5131 30.8683 31.3431 31.0258C31.173 31.1857 31.041 31.3695 30.9496 31.5771C30.8582 31.7848 30.8125 31.9996 30.8125 32.2263V40.7016C30.8125 40.9284 30.7668 41.1432 30.6729 41.3508C30.5815 41.5585 30.452 41.7423 30.282 41.9022C30.1119 42.0597 29.9139 42.1838 29.693 42.2697C29.4722 42.3557 29.2386 42.3986 29 42.3986C28.7589 42.3986 28.5279 42.3557 28.307 42.2697C28.0836 42.1838 27.8882 42.0597 27.7181 41.9022C27.548 41.7423 27.416 41.5585 27.3246 41.3508C27.2332 41.1432 27.1875 40.9284 27.1875 40.7016V25.4432C27.1875 25.2188 27.1418 25.0016 27.0479 24.794C26.9565 24.5864 26.8271 24.4026 26.657 24.2451C26.4869 24.0851 26.2889 23.9634 26.068 23.8775C25.8472 23.7916 25.6137 23.7486 25.375 23.7486C25.1339 23.7486 24.9029 23.7916 24.682 23.8775C24.4586 23.9634 24.2632 24.0851 24.0931 24.2451C23.923 24.4026 23.791 24.5864 23.6996 24.794C23.6082 25.0016 23.5625 25.2188 23.5625 25.4432V37.3125C23.5625 37.5368 23.5168 37.7516 23.4229 37.9593C23.3315 38.1669 23.2021 38.3507 23.032 38.5106C22.8619 38.6705 22.6639 38.7922 22.4431 38.8782C22.2222 38.9641 21.9887 39.0071 21.75 39.0071C21.5089 39.0071 21.2779 38.9641 21.057 38.8782C20.8336 38.7922 20.6382 38.6705 20.4681 38.5106C20.298 38.3507 20.166 38.1669 20.0746 37.9593C19.9832 37.7516 19.9375 37.5368 19.9375 37.3125V33.9209C19.9375 33.6966 19.8919 33.4794 19.7979 33.2717C19.7065 33.0641 19.5771 32.8803 19.407 32.7228C19.2369 32.5628 19.0389 32.4411 18.8181 32.3552C18.5972 32.2693 18.3637 32.2263 18.1251 32.2263C17.8839 32.2263 17.6529 32.2693 17.432 32.3552C17.2087 32.4411 17.0132 32.5628 16.8431 32.7228C16.673 32.8803 16.541 33.0641 16.4496 33.2717C16.3583 33.4794 16.3126 33.6966 16.3126 33.9209V35.6155C16.3126 35.8398 16.2669 36.057 16.1729 36.2647C16.0816 36.4723 15.9521 36.6561 15.782 36.816C15.6119 36.9735 15.4139 37.0953 15.1931 37.1836C14.9722 37.2695 14.7387 37.3125 14.5001 37.3125C14.2589 37.3125 14.0279 37.2695 13.8071 37.1836C13.5837 37.0953 13.3882 36.9735 13.2181 36.816C13.048 36.6561 12.916 36.4723 12.8246 36.2647C12.7333 36.057 12.6876 35.8398 12.6876 35.6155V27.1378H7.25009V29.9374C7.23993 30.5723 7.26024 31.2096 7.31355 31.8444C7.36432 32.4793 7.44809 33.1094 7.56232 33.7371C7.67656 34.3648 7.82379 34.9854 7.99895 35.6012C8.1741 36.217 8.37972 36.8232 8.61326 37.4199C8.84935 38.0166 9.11335 38.6037 9.40528 39.1789C9.69975 39.7517 10.0196 40.3126 10.3674 40.8616C10.7151 41.4081 11.0883 41.9404 11.4894 42.4535C11.8905 42.969 12.3144 43.4655 12.7637 43.9452C13.213 44.4226 13.6827 44.8808 14.1777 45.32C14.6727 45.7568 15.1855 46.1721 15.7211 46.5659C16.2567 46.9597 16.8101 47.3296 17.3813 47.6757C17.9524 48.0218 18.5388 48.344 19.1405 48.6376C19.7446 48.9335 20.3615 49.2032 20.9885 49.4467C21.618 49.6877 22.2577 49.9025 22.9101 50.0911C23.56 50.2796 24.2175 50.4372 24.8826 50.5684C25.5502 50.6997 26.2204 50.8023 26.8981 50.8763C27.6521 50.9432 28.4085 50.9742 29.1676 50.9694C29.9266 50.9646 30.6805 50.9217 31.4345 50.8429C32.1884 50.7641 32.9347 50.6472 33.676 50.4944C34.4172 50.3417 35.1483 50.1531 35.8667 49.9288C36.5876 49.7044 37.2908 49.4467 37.9838 49.1531C38.6743 48.8619 39.347 48.5349 39.9994 48.1769C40.6543 47.8165 41.2864 47.4275 41.8982 47.0074C42.5074 46.5873 43.0938 46.1363 43.6548 45.6589C44.2158 45.1816 44.7464 44.6756 45.2515 44.1457C45.7542 43.6159 46.2289 43.0621 46.6706 42.4869C47.1123 41.9093 47.521 41.3126 47.8967 40.6969C48.2724 40.0811 48.6125 39.4486 48.9172 38.797C49.2218 38.1478 49.4909 37.4867 49.7193 36.8089C49.9503 36.1334 50.1433 35.4484 50.2981 34.7539C50.4504 34.0593 50.5646 33.3576 50.6408 32.6535C50.717 31.9471 50.7525 31.2382 50.75 30.5293V27.1378H45.3125Z" fill="#FAFAFA"/>
</svg>
